<?xml version="1.0" encoding="UTF-8" standalone="no"?>
<svg
   xmlns:dc="http://purl.org/dc/elements/1.1/"
   xmlns:cc="http://creativecommons.org/ns#"
   xmlns:rdf="http://www.w3.org/1999/02/22-rdf-syntax-ns#"
   xmlns:svg="http://www.w3.org/2000/svg"
   xmlns="http://www.w3.org/2000/svg"
   xmlns:sodipodi="http://sodipodi.sourceforge.net/DTD/sodipodi-0.dtd"
   xmlns:inkscape="http://www.inkscape.org/namespaces/inkscape"
   width="24"
   height="24"
   viewBox="0 0 24 24"
   version="1.1"
   id="svg4"
   sodipodi:docname="linkedin.svg"
   inkscape:version="0.92.4 5da689c313, 2019-01-14">
  <metadata
     id="metadata10">
    <rdf:RDF>
      <cc:Work
         rdf:about="">
        <dc:format>image/svg+xml</dc:format>
        <dc:type
           rdf:resource="http://purl.org/dc/dcmitype/StillImage" />
        <dc:title></dc:title>
      </cc:Work>
    </rdf:RDF>
  </metadata>
  <defs
     id="defs8" />
  <sodipodi:namedview
     pagecolor="#ffffff"
     bordercolor="#666666"
     borderopacity="1"
     objecttolerance="10"
     gridtolerance="10"
     guidetolerance="10"
     inkscape:pageopacity="0"
     inkscape:pageshadow="2"
     inkscape:window-width="1366"
     inkscape:window-height="694"
     id="namedview6"
     showgrid="false"
     inkscape:zoom="19.666667"
     inkscape:cx="14.803793"
     inkscape:cy="12.306537"
     inkscape:window-x="0"
     inkscape:window-y="0"
     inkscape:window-maximized="1"
     inkscape:current-layer="svg4" />
  <path
     d="M19 0h-14c-2.761 0-5 2.239-5 5v14c0 2.761 2.239 5 5 5h14c2.762 0 5-2.239 5-5v-14c0-2.761-2.238-5-5-5zm-11 19h-3v-11h3v11zm-1.5-12.268c-.966 0-1.75-.79-1.75-1.764s.784-1.764 1.75-1.764 1.75.79 1.75 1.764-.783 1.764-1.75 1.764zm13.5 12.268h-3v-5.604c0-3.368-4-3.113-4 0v5.604h-3v-11h3v1.765c1.396-2.586 7-2.777 7 2.476v6.759z"
     id="path2"
     style="fill:none" />
  <path
     style="fill:#000000;stroke-width:0.05084746"
     d="M 5.0004035,13.493463 V 8.0019371 h 1.5 1.5 v 5.4915259 5.491525 h -1.5 -1.5 z"
     id="path3715"
     inkscape:connector-curvature="0" />
  <path
     style="fill:#000000;stroke-width:0.05084746"
     d="M 10.034302,13.493463 V 8.0019371 h 1.473403 1.473403 l 0.01388,0.8963735 0.01389,0.8963735 0.167357,-0.2584172 c 0.390192,-0.6024974 1.241239,-1.1588126 2.120779,-1.3863186 0.56398,-0.1458819 1.426357,-0.1466544 1.972905,-0.00177 1.275023,0.3380019 2.183872,1.2817053 2.527996,2.6249427 0.168127,0.656262 0.200115,1.437852 0.201335,4.919491 l 0.0012,3.292373 h -1.5 -1.5 V 15.9194 c 0,-3.347188 1.7e-5,-3.346957 -0.299263,-3.939827 -0.174342,-0.34537 -0.573657,-0.736866 -0.910031,-0.892211 -0.193104,-0.08918 -0.334019,-0.11078 -0.72291,-0.110811 -0.438094,-3.4e-5 -0.515045,0.01512 -0.826825,0.162805 -0.408265,0.19339 -0.773883,0.552059 -0.969041,0.950624 -0.280728,0.573321 -0.287312,0.662609 -0.288128,3.90772 l -7.52e-4,2.987288 h -1.474576 -1.474576 z"
     id="path3717"
     inkscape:connector-curvature="0" />
  <path
     style="fill:#000000;stroke-width:0.05084746"
     d="M 6.2172652,6.6780438 C 5.7178336,6.5965237 5.1976258,6.2030019 4.9426054,5.7138015 4.8407946,5.5184998 4.8232598,5.4105171 4.8228811,4.9765134 4.8224996,4.5392804 4.8398745,4.4326037 4.9468918,4.2151276 5.1140795,3.8753757 5.4517954,3.548242 5.8039714,3.384904 c 0.4125687,-0.1913478 0.9802955,-0.1913478 1.3928642,0 0.351968,0.1632415 0.6864439,0.4872679 0.8556285,0.8288975 0.1087977,0.219692 0.1258312,0.3233279 0.1253583,0.7627119 C 8.1773343,5.4284738 8.1622705,5.513245 8.0422726,5.7392252 7.6861333,6.4099071 6.9366349,6.7954634 6.2172652,6.6780438 Z"
     id="path3719"
     inkscape:connector-curvature="0" />
  <path
     style="fill:#ffffff;stroke-width:0.05084746"
     d="M 5.0004035,13.493463 V 8.0019371 h 1.5 1.5 v 5.4915259 5.491525 h -1.5 -1.5 z"
     id="path3721"
     inkscape:connector-curvature="0" />
  <path
     style="fill:#ffffff;stroke-width:0.05084746"
     d="M 10.034302,13.492683 V 8.0003776 l 1.461864,0.013492 1.461865,0.013492 0.01391,0.8771187 c 0.0077,0.4824152 0.03053,0.8770777 0.05085,0.8770277 0.02031,-5e-5 0.101932,-0.1029729 0.181373,-0.2287175 0.238701,-0.3778309 0.719302,-0.7708992 1.27929,-1.0462927 0.584581,-0.2874871 0.92448,-0.3842313 1.513437,-0.4307633 1.90122,-0.1502108 3.430746,1.0275978 3.833041,2.9516275 0.07684,0.3675 0.159357,3.627757 0.16698,6.597457 l 0.0035,1.36017 h -1.5 -1.5 l -3.06e-4,-3.012712 c -1.58e-4,-1.727595 -0.02157,-3.14285 -0.05018,-3.317797 -0.09919,-0.606466 -0.527474,-1.225281 -1.068156,-1.543357 -0.210022,-0.123554 -0.274747,-0.134609 -0.788135,-0.134609 -0.496505,0 -0.590731,0.01483 -0.838983,0.132059 -0.622421,0.293913 -1.10741,0.948337 -1.221027,1.647602 -0.02811,0.173005 -0.0497,1.587361 -0.04987,3.26695 l -2.95e-4,2.961864 h -1.474576 -1.474576 z"
     id="path3723"
     inkscape:connector-curvature="0" />
  <path
     style="fill:#ffffff;stroke-width:0.05084746"
     d="M 6.0375036,6.6108652 C 5.6049454,6.4691081 5.1280247,6.0460539 4.9439837,5.6408545 4.7964094,5.3159428 4.8112897,4.5995715 4.9728198,4.2526222 5.1219683,3.9322674 5.4715535,3.5798542 5.8012499,3.4174905 c 0.3479906,-0.1713731 1.0503166,-0.1713731 1.3983072,0 C 7.5292535,3.5798542 7.8788387,3.9322674 8.0279872,4.2526222 8.1917145,4.6042908 8.2044713,5.315714 8.053032,5.6493226 7.7242606,6.3735793 6.7425495,6.8419215 6.0375036,6.6108652 Z"
     id="path3725"
     inkscape:connector-curvature="0" />
</svg>
